# xmcd
#
# Track frame offsets:
# 150
# 10064
# 22398
# 32161
# 41869
# 57119
# 68560
# 83928
# 102654
# 116023
# 127881
# 140477
# 153195
# 162103
# 173823
# 192167
# 207859
#
# Disc length: 2921 seconds
#
#
# Revision: 0
# Processed by: cddbd v1.5.1PL0 Copyright (c) Steve Scherf et al.
# Submitted via: FreeRIP 2.80 
#
DISCID=e60b6711
DTITLE=Frogs for Snakes - Frogs for Snakes
DYEAR=2003
DGENRE=Blues
TTITLE0=Ain't Got You
TTITLE1=I Ain't Superstitious
TTITLE2=Diddy Wah Diddy
TTITLE3=T-Bone Shuffle
TTITLE4=One Way Out
TTITLE5=Hush Oh Hush
TTITLE6=Scratch My Back
TTITLE7=Good Thing
TTITLE8=Love In Vain
TTITLE9=I Got Loaded
TTITLE10=Drunk
TTITLE11=I Wish You Would
TTITLE12=Rub A Dub
TTITLE13=Too Close Together
TTITLE14=I Don't Know
TTITLE15=Money Woman
TTITLE16=I Want To
EXTD=
EXTT0=
EXTT1=
EXTT2=
EXTT3=
EXTT4=
EXTT5=
EXTT6=
EXTT7=
EXTT8=
EXTT9=
EXTT10=
EXTT11=
EXTT12=
EXTT13=
EXTT14=
EXTT15=
EXTT16=
PLAYORDER=
